#!OML:ASF H:\Terrain\Patient Classification 1\Animal2\Wednesday\Animal2.ASF
:FULLY-SPECIFIED
:DEGREES
4840
root 11.9334 15.5372 -19.7783 11.4254 -12.2894 1.74038
lowerback 20.4209 -4.24888 1.9224
upperback 9.07112 -5.09915 3.33112
thorax -1.39322 -2.58492 3.52897
lowerneck 2.18026 0.287996 16.0346
upperneck 0.0863644 0.739843 -5.97892
head -0.243632 0.396116 -4.3771
rclavicle -6.24184e-014 6.52014e-014
rhumerus -1.29732 20.4887 -37.3659
rradius 107.534
rwrist -40.465
rhand -3.34282 24.6888
rfingers 7.12502
rthumb 22.3849 -4.03426
lclavicle -6.24184e-014 6.52014e-014
lhumerus -368.242 -17.0998 426.968
lradius 47.5338
lwrist 31.8498
lhand -23.6439 31.528
lfingers 7.12502
lthumb 2.82125 61.489
rfemur -35.3874 12.3256 -17.0165
rtibia 35.8838
rfoot -23.4753 -2.88191
rtoes -36.9604
lfemur -25.4808 4.59059 4.53749
ltibia 43.1629
lfoot -26.2664 5.56479
ltoes -46.5324
4841
root 11.9602 15.5438 -19.7703 11.4021 -12.3537 1.57764
lowerback 20.5246 -4.17705 1.54362
upperback 8.87733 -5.0618 3.36786
thorax -1.6219 -2.57447 3.79061
lowerneck 2.36399 0.226779 15.8564
upperneck 0.479343 0.685343 -5.7981
head -0.162781 0.383625 -4.29241
rclavicle -7.55382e-015 -8.34896e-015
rhumerus -2.90441 20.9868 -38.6639
rradius 107.238
rwrist -40.2505
rhand -2.84552 23.9383
rfingers 7.12502
rthumb 22.8622 -4.72658
lclavicle -7.55382e-015 -8.34896e-015
lhumerus -368.401 -17.8532 427.398
lradius 48.8561
lwrist 29.5112
lhand -21.0725 31.7289
lfingers 7.12502
lthumb 5.30435 61.6426
rfemur -35.3 12.1172 -16.7849
rtibia 35.7542
rfoot -23.2538 -2.73108
rtoes -36.6092
lfemur -25.3805 4.53967 4.63091
ltibia 43.2353
lfoot -26.5518 4.85569
ltoes -44.9474
4842
root 11.9834 15.5513 -19.7622 11.4284 -12.4155 1.25484
lowerback 20.5355 -4.03063 1.43657
upperback 8.83532 -4.8917 3.36232
thorax -1.67418 -2.49258 3.8119
lowerneck 2.28229 0.0529238 15.872
upperneck 0.653236 0.440554 -5.44982
head -0.124242 0.264743 -4.18486
rclavicle -9.54166e-015 3.06128e-014
rhumerus -4.77068 20.9692 -40.2417
rradius 106.8
rwrist -39.7752
rhand -2.33836 23.3727
rfingers 7.12502
rthumb 23.3488 -5.23122
lclavicle -9.54166e-015 3.06128e-014
lhumerus -368.086 -18.5969 427.632
lradius 50.6941
lwrist 29.357
lhand -18.7633 32.9278
lfingers 7.12502
lthumb 7.53359 62.7737
rfemur -35.3519 12.0173 -16.3862
rtibia 35.7562
rfoot -22.8167 -2.71432
rtoes -37.1217
lfemur -25.2908 4.65381 4.89666
ltibia 43.2991
lfoot -26.7948 4.52363
ltoes -44.5103
4843
root 12.0085 15.5557 -19.7577 11.5204 -12.3027 0.987586
lowerback 20.4213 -3.90974 1.45689
upperback 8.89648 -4.74097 3.31299
thorax -1.56543 -2.41778 3.70411
lowerneck 1.89413 -0.113474 15.9262
upperneck 0.808459 0.153391 -5.00478
head -0.0453978 0.121301 -4.05309
rclavicle -3.77691e-014 1.11319e-014
rhumerus -6.63864 20.6147 -42.028
rradius 106.209
rwrist -39.2055
rhand -2.14693 23.6526
rfingers 7.12502
rthumb 23.5325 -4.92781
lclavicle -3.77691e-014 1.11319e-014
lhumerus -367.461 -19.4725 427.706
lradius 52.7991
lwrist 30.0909
lhand -17.3347 34.3065
lfingers 7.12502
lthumb 8.91235 64.0983
rfemur -35.4053 11.5889 -15.9275
rtibia 35.9084
rfoot -22.3205 -2.80068
rtoes -38.3669
lfemur -25.4077 4.74799 5.10611
ltibia 43.3575
lfoot -26.7586 5.0326
ltoes -45.9864
4844
root 12.037 15.5632 -19.7522 11.6738 -12.1142 0.802506
lowerback 20.3748 -3.7709 1.56606
upperback 8.86088 -4.54483 3.18959
thorax -1.61098 -2.31321 3.46829
lowerneck 1.22089 -0.274674 16.5966
upperneck 1.2561 -0.170914 -5.02699
head 0.163487 -0.0277527 -4.16376
rclavicle 7.95139e-015 -1.43125e-014
rhumerus -8.71729 20.1581 -44.1208
rradius 105.449
rwrist -38.664
rhand -2.21462 24.23
rfingers 7.12502
rthumb 23.4675 -4.35879
lclavicle 7.95139e-015 -1.43125e-014
lhumerus -366.78 -20.7652 427.828
lradius 54.6073
lwrist 30.0596
lhand -17.0453 35.1539
lfingers 7.12502
lthumb 9.19164 64.9336
rfemur -35.5251 10.8553 -15.4547
rtibia 36.1982
rfoot -21.4797 -3.25517
rtoes -40.1169
lfemur -25.659 4.70902 5.21233
ltibia 43.4195
lfoot -26.6018 5.82653
ltoes -47.685
4845
root 12.0618 15.5747 -19.7492 11.7917 -12.0277 0.636084
lowerback 20.4281 -3.47241 1.79756
upperback 8.87394 -4.12416 2.90559
thorax -1.68382 -2.09101 2.95017
lowerneck 0.236147 -0.504187 17.7513
upperneck 1.74421 -0.657909 -5.04009
head 0.414133 -0.254522 -4.34951
rclavicle 3.00165e-014 -8.07066e-014
rhumerus -11.306 19.1346 -46.3895
rradius 104.846
rwrist -38.1185
rhand -2.57339 24.506
rfingers 7.12502
rthumb 23.1233 -4.12632
lclavicle 3.00165e-014 -8.07066e-014
lhumerus -365.707 -22.8763 427.689
lradius 56.1435
lwrist 29.5679
lhand -17.6724 35.2752
lfingers 7.12502
lthumb 8.58652 65.0806
rfemur -35.7639 10.2564 -15.0622
rtibia 36.6091
rfoot -20.9931 -3.22699
rtoes -39.6843
lfemur -25.8355 4.65319 5.30821
ltibia 43.5049
lfoot -26.6792 5.95734
ltoes -47.733
4846
root 12.0844 15.58 -19.7524 11.7815 -12.0185 0.468382
lowerback 20.6483 -3.406 1.6144
upperback 8.78296 -4.06017 2.87612
thorax -1.88587 -2.06145 3.02671
lowerneck 0.357659 -0.55992 17.3137
upperneck 1.84285 -0.718432 -4.47917
head 0.421855 -0.27946 -4.10706
rclavicle -2.64384e-014 2.5842e-014
rhumerus -13.1537 19.0045 -48.04
rradius 104.246
rwrist -37.6128
rhand -2.94925 24.2847
rfingers 7.12502
rthumb 22.7627 -4.39237
lclavicle -2.64384e-014 2.5842e-014
lhumerus -365.659 -24.1636 428.04
lradius 57.9289
lwrist 29.336
lhand -18.21 35.2318
lfingers 7.12502
lthumb 8.06768 65.0578
rfemur -36.0624 9.76963 -14.6854
rtibia 37.1358
rfoot -20.114 -3.07985
rtoes -39.3032
lfemur -25.8579 4.5963 5.43301
ltibia 43.585
lfoot -26.692 6.00689
ltoes -47.6821
4847
root 12.1108 15.5807 -19.7561 11.8406 -12.0479 0.196586
lowerback 20.8308 -3.2914 1.63467
upperback 8.76531 -3.90173 2.85587
thorax -2.00616 -1.98163 2.97214
lowerneck 0.436467 -0.749103 17.0294
upperneck 1.57073 -0.958822 -3.88798
head 0.306429 -0.410736 -3.87799
rclavicle -8.94531e-015 5.76476e-015
rhumerus -14.7305 18.5366 -49.8845
rradius 103.145
rwrist -37.0015
rhand -3.10007 24.3809
rfingers 7.12502
rthumb 22.6179 -4.31393
lclavicle -8.94531e-015 5.76476e-015
lhumerus -365.416 -25.57 428.366
lradius 59.8807
lwrist 29.68
lhand -18.7116 35.1945
lfingers 7.12502
lthumb 7.58349 65.0385
rfemur -36.5453 9.26842 -14.2265
rtibia 37.7594
rfoot -19.0023 -3.06277
rtoes -39.6524
lfemur -25.9075 4.56524 5.65783
ltibia 43.6587
lfoot -26.5545 6.34323
ltoes -48.2647
4848
root 12.1327 15.5887 -19.7564 11.9579 -12.2161 -0.181403
lowerback 21.0367 -3.13115 1.63922
upperback 8.77167 -3.68642 2.89827
thorax -2.10836 -1.87647 2.98043
lowerneck 0.16075 -0.886458 16.6648
upperneck 1.50014 -1.20473 -3.03188
head 0.338636 -0.533848 -4.0026
rclavicle 8.15017e-015 5.76476e-015
rhumerus -16.2505 18.0859 -51.571
rradius 102.061
rwrist -36.7051
rhand -3.41797 24.7453
rfingers 7.12502
rthumb 22.3128 -3.98637
lclavicle 8.15017e-015 5.76476e-015
lhumerus -365.136 -26.2609 428.749
lradius 61.8818
lwrist 28.8587
lhand -18.3506 34.7665
lfingers 7.12502
lthumb 7.932 64.5977
rfemur -37.2088 8.97868 -13.7605
rtibia 38.508
rfoot -18.1457 -2.40377
rtoes -38.5364
lfemur -25.8536 4.62983 5.97556
ltibia 43.7135
lfoot -26.5952 6.74454
ltoes -48.7432
4849
root 12.1492 15.5973 -19.7567 12.048 -12.4877 -0.42381
lowerback 21.298 -2.99011 1.39215
upperback 8.73167 -3.54182 2.90588
thorax -2.27377 -1.81041 3.11344
lowerneck -0.18695 -0.832508 16.4367
upperneck 1.9179 -1.20887 -2.90526
head 0.541742 -0.516558 -3.9168
rclavicle 2.32578e-014 -1.23246e-014
rhumerus -17.8529 17.9546 -52.8796
rradius 101.312
rwrist -36.749
rhand -4.02885 24.5123
rfingers 7.12502
rthumb 21.7263 -4.28847
lclavicle 2.32578e-014 -1.23246e-014
lhumerus -365.05 -26.5537 429.088
lradius 63.8212
lwrist 27.4693
lhand -18.53 33.0395
lfingers 7.12502
lthumb 7.75877 62.8771
rfemur -37.9872 8.71726 -13.4852
rtibia 39.3773
rfoot -17.3776 -1.60266
rtoes -37.7405
lfemur -25.737 4.75425 6.1339
ltibia 43.743
lfoot -26.6765 7.14698
ltoes -49.1601
4850
root 12.1671 15.6014 -19.7605 12.2406 -12.7497 -0.544507
lowerback 21.3758 -2.91325 1.14518
upperback 8.68781 -3.49025 2.83615
thorax -2.35328 -1.78847 3.17312
lowerneck -0.0298251 -0.787245 16.0341
upperneck 1.82341 -1.12029 -2.62534
head 0.4939 -0.477915 -3.73518
rclavicle 2.64384e-014 -4.03533e-014
rhumerus -19.15 17.918 -54.0359
rradius 100.438
rwrist -36.8716
rhand -5.0523 23.9739
rfingers 7.12502
rthumb 20.7432 -4.93744
lclavicle 2.64384e-014 -4.03533e-014
lhumerus -364.993 -27.0054 429.297
lradius 65.6753
lwrist 27.0471
lhand -17.0875 34.1426
lfingers 7.12502
lthumb 9.15086 63.924
rfemur -38.9244 8.3282 -13.3689
rtibia 40.3218
rfoot -16.7743 -0.664705
rtoes -36.5767
lfemur -25.799 4.89478 6.14822
ltibia 43.7779
lfoot -26.4369 8.03598
ltoes -50.2838
4851
root 12.1835 15.612 -19.7673 12.4508 -12.9553 -0.826043
lowerback 21.4606 -2.83911 1.21121
upperback 8.73241 -3.38614 2.74543
thorax -2.3623 -1.73489 3.01845
lowerneck 0.203253 -0.823778 15.7091
upperneck 1.23116 -1.11534 -2.20229
head 0.260394 -0.504978 -3.51615
rclavicle 3.16068e-014 -6.67916e-014
rhumerus -20.4603 17.4685 -55.7346
rradius 99.2953
rwrist -36.2815
rhand -6.34669 23.8356
rfingers 7.12502
rthumb 19.4991 -5.20668
lclavicle 3.16068e-014 -6.67916e-014
lhumerus -364.796 -27.469 429.401
lradius 67.7296
lwrist 26.2013
lhand -16.1247 33.7706
lfingers 7.12502
lthumb 10.0799 63.5092
rfemur -39.8274 8.06497 -13.0951
rtibia 41.2363
rfoot -16.0759 0.556773
rtoes -33.2279
lfemur -25.8658 5.01582 6.36206
ltibia 43.8532
lfoot -26.1957 8.70038
ltoes -51.0487
4852
root 12.1988 15.6195 -19.7721 12.6097 -13.2053 -1.16668
lowerback 21.5805 -2.62615 1.44768
upperback 8.85954 -3.07525 2.59846
thorax -2.31898 -1.57567 2.65878
lowerneck 0.147187 -0.97528 15.9938
upperneck 0.757737 -1.31359 -2.03842
head 0.0946877 -0.627375 -3.51059
rclavicle 2.78299e-015 -2.18663e-014
rhumerus -21.8261 16.6599 -57.1851
rradius 98.132
rwrist -35.8693
rhand -7.41326 24.0931
rfingers 7.12502
rthumb 18.4733 -5.04975
lclavicle 2.78299e-015 -2.18663e-014
lhumerus -364.285 -28.3342 429.351
lradius 69.9655
lwrist 25.1769
lhand -15.7687 32.66
lfingers 7.12502
lthumb 10.4233 62.3817
rfemur -40.659 7.85883 -12.7738
rtibia 42.0106
rfoot -15.355 1.58579
rtoes -30.5537
lfemur -25.8635 5.16034 6.65733
ltibia 44.0026
lfoot -26.3885 8.5701
ltoes -50.6461
4853
root 12.2126 15.6127 -19.7735 12.7355 -13.487 -1.34131
lowerback 21.7309 -2.5974 1.16207
upperback 8.94155 -3.09007 2.70503
thorax -2.28336 -1.59395 2.94334
lowerneck 0.344225 -0.940888 15.2468
upperneck 0.446628 -1.22473 -1.81411
head -0.0279132 -0.599465 -3.28522
rclavicle 1.11319e-014 -2.40529e-014
rhumerus -22.4606 17.1749 -58.0675
rradius 97.0142
rwrist -36.228
rhand -8.79969 23.9521
rfingers 7.12502
rthumb 17.1392 -5.31192
lclavicle 1.11319e-014 -2.40529e-014
lhumerus -364.34 -28.3708 429.791
lradius 72.1787
lwrist 24.5914
lhand -16.1254 32.3166
lfingers 7.12502
lthumb 10.0792 62.0552
rfemur -41.3853 7.52239 -12.6135
rtibia 42.5751
rfoot -14.9698 2.1191
rtoes -30.4376
lfemur -25.8846 5.24362 6.78328
ltibia 44.2127
lfoot -26.6808 8.59739
ltoes -50.2583
